<?xml version="1.0" encoding="UTF-8" standalone="no"?>
<svg
    viewBox="-50 -50 13704.470588235296 9420.94710327456"
    width="13604.470588235296mm" height="9320.94710327456mm"
    version="1.1"
    xmlns="http://www.w3.org/2000/svg"
    xmlns:rdf="http://www.w3.org/1999/02/22-rdf-syntax-ns#"
    xmlns:svg="http://www.w3.org/2000/svg"
    xmlns:wallCanvas="http://www.drone.paint/"
    wallCanvas:origin="8210 8160"
    wallCanvas:wallId="MX19-001" >
<g fill="none" stroke="#F7296E" stroke-width="100" stroke-linecap="round" stroke-linejoin="round"><path d="M8635.583345680843,890.972884871833 C 8652.717439620686,839.5706030523041 8669.851533560528,788.1683212327754 8686.985627500371,736.7660394132465 8704.119721440215,685.3637575937177 8709.671102632065,628.5060846551971 8738.3879093199,582.55919395466 8798.319792380573,486.6681810575828 8920.931768425087,440.1487540863051 8978.265224477702,342.6818787968588 9008.498022122292,291.28612280105517 9012.533412357387,228.45458586457255 9029.66750629723,171.3409393984294 9046.801600237073,114.22729293228628 9044.461493175882,47.06780778112433 9081.069788116758,0 9095.527205309076,-18.588107818694613 9126.760705289673,11.422729293228556 9149.606163876131,17.13409393984294 9172.451622462588,22.845458586457184 9214.271180267599,11.040031672258191 9218.142539635503,34.26818787968588 9228.640236636253,97.25436988419312 9195.297081049044,159.91821010520073 9183.874351755816,222.74322121795825 9172.451622462588,285.56823233071566 9161.02889316936,348.3932434434731 9149.606163876131,411.2182545562306" />
    <path d="M7367.660394132465,9149.606163876131 C 7464.753593124908,9155.317528522746 7561.8467921173515,9161.028893169361 7658.939991109794,9166.740257815974 7756.033190102238,9172.45162246259 7853.936075494477,9170.119564242581 7950.219588087125,9183.874351755816 8054.473506082478,9198.767768612295 8155.82871536524,9229.56526892873 8258.633279004298,9252.41072751519 8361.437842643356,9275.256186101646 8461.825907497989,9316.56289234025 8567.04696992147,9320.94710327456 8738.61937504266,9328.095953487944 8909.728848718329,9298.101644688102 9081.069788116758,9286.678915394874 9252.410727515187,9275.256186101646 9430.098754266028,9300.005107913079 9595.092606312048,9252.41072751519 9735.322349071961,9211.9598401806 9846.392650763077,9103.915246703216 9972.042672988591,9029.66750629723 10404.622983553598,8774.051868236089 10245.792315633389,8910.124709111018 10486.06549118388,8669.851533560528 10531.756408356794,8624.160616387613 10584.368213856702,8584.472153836346 10623.138242702624,8532.778782041785 10637.26737852527,8513.939934278258 10634.560971995852,8487.08786486887 10640.272336642467,8464.242406282414 10645.983701289082,8441.396947695956 10655.600338499204,8419.185227603424 10657.40643058231,8395.70603052304 10661.348805632555,8344.455154869864 10657.40643058231,8292.901466883983 10657.40643058231,8241.499185064455 10657.40643058231,8190.096903244926 10667.024419883917,8137.786783439308 10657.40643058231,8087.292339605869 10643.888762713772,8016.32458329604 10611.715513409395,7950.219588087125 10588.870054822937,7881.683212327753 10566.02459623648,7813.146836568381 10550.756310931338,7741.599753687915 10520.333679063566,7676.074085049638 10432.029402478314,7485.880258558327 10297.084558388484,7319.403362019365 10211.919988146394,7127.783078974664 10162.76844202715,7017.192100206368 10131.960883093792,6899.328493110091 10091.981330567492,6785.1012001778045 10052.001778041193,6670.873907245518 9989.778233336387,6562.134353728564 9972.042672988591,6442.419321380946 9965.66832541303,6399.392475245905 10006.310860868278,6362.460216328345 10023.444954808121,6322.4806638020455 10040.579048747964,6282.501111275746 10070.043856472092,6245.77242762317 10074.84723662765,6202.542006223145 10087.46153090556,6089.013357721947 10074.84723662765,5974.087420358572 10074.84723662765,5859.8601274262855 10074.84723662765,5745.632834493999 10049.687433544763,5628.6002337107775 10074.84723662765,5517.178248629427 10091.249421504886,5444.540001315947 10154.80634168025,5391.528226403912 10194.78589420655,5328.703215291155 10234.76544673285,5265.878204178398 10282.846209871625,5207.526903770957 10314.72455178545,5140.228181952883 10334.88618548091,5097.664733040246 10337.570010371908,5048.846347607054 10348.992739665136,5003.155430434139 10424.90945428838,4699.488571941174 10380.128073763224,4913.075485639369 10417.529115424508,4352.059860720107 10428.951844717736,4180.718921321678 10472.257072488823,4008.5351190633955 10451.797303304194,3838.037042524819 10437.139276720794,3715.8868209964858 10360.415468958365,3609.5824566602464 10314.72455178545,3495.35516372796 10269.033634612535,3381.127870795674 10236.940606049542,3260.4711136271644 10177.651800266707,3152.673284931101 10110.456818209725,3030.50059028204 10017.733590161506,2924.2186990665286 9937.774485108906,2809.9914061342424 9857.815380056305,2695.764113201956 9770.486598249412,2586.356189746609 9697.897169951104,2467.3095273373838 9627.408648031229,2351.7083513887883 9572.24714772559,2227.432212179582 9509.422136612833,2107.493554600682 9446.597125500075,1987.554897021781 9368.966112590635,1874.273151879086 9320.94710327456,1747.67758186398 9304.742626038336,1704.9566873321144 9320.94710327456,1656.295747518151 9320.94710327456,1610.6048303452365 9320.94710327456,1430.0356215530219 9338.945637318755,1515.528658262947 9269.54482145503,1353.5934212475925 9252.410727515187,1313.6138687212924 9248.899179531161,1264.4114035643515 9218.142539635503,1233.6547636686919 9171.045420226685,1186.557644259873 9103.915246703216,1165.11838790932 9046.801600237073,1130.8502000296342 8989.68795377093,1096.5820121499482 8907.03826208822,1086.6897529969317 8875.460660838644,1028.0456363905764 8854.838998142643,989.748262812289 8909.728848718329,948.0865313379759 8926.862942658172,908.1069788116758 8943.997036598015,868.1274262853756 8950.836679303316,821.9265306781722 8978.265224477702,788.1683212327753 9075.172873853502,668.897368154868 9227.248518353395,601.5627907131168 9320.94710327456,479.75463031560236 9334.87622521127,461.64677179788066 9320.94710327456,434.06371314268785 9320.94710327456,411.2182545562306 9320.94710327456,388.37279596977334 9331.163902949856,363.1154781474486 9320.94710327456,342.6818787968588 9315.838703436913,332.46507912156375 9298.101644688102,342.6818787968588 9286.678915394874,342.6818787968588 9275.256186101646,342.6818787968588 9263.833456808417,342.6818787968588 9252.41072751519,342.6818787968588" />
    <path d="M8875.460660838644,616.8273818343459 C 8846.903837605572,679.6523929471034 8818.3470143725,742.4774040598608 8789.79019113943,805.3024151726182 8761.233367906358,868.1274262853757 8747.230352462218,939.8891597333865 8704.119721440215,993.7774485108906 8653.410886023727,1057.1634927815014 8578.4696992147,1096.5820121499482 8515.644688101942,1147.984293969477 8452.819676989184,1199.3865757890057 8368.070752034193,1232.0749726785934 8327.16965476367,1302.1911394280635 8283.147914896057,1377.6569792011137 8292.901466883985,1473.532078826493 8275.767372944141,1559.2025485257077 8214.222237895368,1866.9282237695738 8214.717011223622,1729.3812385144436 8241.499185064455,1970.4208030819382 8247.21054971107,2021.823084901467 8230.866826662894,2080.9946520040335 8258.633279004298,2124.6276485405247 8278.026210525577,2155.1022552168192 8327.16965476367,2147.473107126982 8361.437842643356,2158.895836420211 8395.706030523043,2170.3185657134395 8428.120564620285,2193.1640242998965 8464.242406282414,2193.1640242998965 8516.898586553685,2193.1640242998965 8567.046969921472,2170.3185657134395 8618.449251741,2158.895836420211 8669.851533560528,2147.473107126982 8721.253815380058,2136.0503778337534 8772.656097199586,2124.6276485405247" />
    <path d="M8567.04696992147,1233.6547636686919 C 8715.542450733443,1279.345680841606 8864.037931545414,1325.0365980145207 9012.533412357387,1370.7275151874353" />
    <path d="M9012.533412357387,1473.532078826493 C 9029.66750629723,1536.3570899392505 9046.801600237073,1599.1821010520077 9063.935694176917,1662.0071121647652 9081.06978811676,1724.8321232775227 9121.817616003296,1785.6857454345225 9115.337975996445,1850.4821455030376 9112.994806728268,1873.9138381848052 9069.64705882353,1839.0594162098091 9046.801600237073,1833.3480515631948 9023.956141650617,1827.6366869165804 8992.975893102086,1834.602293403832 8978.265224477702,1816.2139576233517 8963.993779639632,1798.3746515757648 8978.265224477702,1770.5230404504373 8978.265224477702,1747.67758186398 8978.265224477702,1724.832123277523 8978.265224477702,1701.9866646910655 8978.265224477702,1679.1412061046083" />
    <path d="M8943.997036598015,1679.1412061046083 C 8938.2856719514,1662.0071121647654 8932.574307304787,1644.8730182249224 8926.862942658172,1627.7389242850795 8921.151578011557,1610.6048303452365 8927.094856613841,1581.2983590071258 8909.728848718329,1576.3366424655505 8876.324665569507,1566.792590137316 8841.192472958957,1587.7593717587793 8806.924285079273,1593.4707364053936 8772.656097199586,1599.182101052008 8734.773434560182,1594.2561833479208 8704.119721440215,1610.6048303452365 8646.661271906247,1641.2493367633524 8601.315157801157,1690.563935397837 8549.912875981629,1730.543487924137 8498.510594162099,1770.5230404504373 8447.10831234257,1810.5025929767373 8395.70603052304,1850.4821455030376" />
    <path d="M4523.400800118537,6031.201066824715 C 4551.957623351608,5974.087420358572 4580.51444658468,5916.973773892429 4609.071269817751,5859.8601274262855 4637.628093050823,5802.746480960142 4648.597445195333,5732.65720868333 4694.741739516966,5688.519188027856 4708.946251714918,5674.932263316772 5299.1801589829,5289.689895840038 5311.569121351312,5277.300933471626 5360.367042282859,5228.503012540079 5368.682767817455,5151.650911246111 5397.2395910505265,5088.825900133354 5425.796414283598,5026.000889020596 5465.490253577618,4967.1267942882205 5482.910060749741,4900.350866795081 5500.270108544465,4833.804016915306 5494.33279004297,4763.278115276337 5500.0441546895845,4694.741739516966 5505.755519336199,4626.205363757595 5522.889613276041,4557.668987998222 5517.178248629427,4489.132612238851 5511.311444307876,4418.730960380234 5482.910060749741,4352.059860720107 5465.775966809898,4283.523484960735 5448.6418728700555,4214.987109201364 5444.123379217116,4141.990622170995 5414.37368499037,4077.91435768262 5368.993967288291,3980.173427247373 5300.146392058083,3895.1506889909624 5243.03274559194,3803.768854645133 5185.9190991257965,3712.3870202993044 5109.529504715576,3630.523880999822 5071.69180619351,3529.623351607646 5039.355799388204,3443.3940001268297 5048.846347607053,3346.859682915988 5037.423618313825,3255.477848570159 4994.595708858435,2912.854572927035 5041.263779915015,3065.1707143905996 4917.484960734924,2792.8573121943996 4888.928137501853,2730.032301081642 4873.220899993912,2659.5908241337297 4831.81449103571,2604.382278856127 4785.711359384932,2542.9114366550893 4717.587198103423,2501.5777152170695 4660.47355163728,2450.1754333975405 4603.359905171137,2398.7731515780115 4518.950350508328,2366.7857163289614 4489.132612238851,2295.968587938954 4466.530341095361,2242.2881939731665 4511.978070825308,2181.7412950066678 4523.400800118537,2124.6276485405247 4534.823529411765,2067.5140020743816 4562.136154067355,2011.359868040822 4557.668987998222,1953.2867091420953 4555.810534576884,1929.1268146646885 4523.400800118537,1919.0185212624094 4506.266706178693,1901.8844273225666 4489.13261223885,1884.7503333827235 4478.765999909423,1854.4657414280807 4454.864424359164,1850.4821455030376 4434.551991003102,1847.0967399436938 4420.596236479479,1873.327604089495 4403.462142539636,1884.7503333827235 4386.328048599793,1896.1730626759522 4357.365809278184,1899.1212141696196 4352.059860720107,1919.0185212624094 4332.872474404406,1990.97121994629 4340.637131426878,2067.5140020743816 4334.925766780264,2141.7617424803675 4329.21440213365,2216.0094828863535 4346.145000678798,2295.6468818051244 4317.791672840422,2364.504963698326 4286.4291315363735,2440.6711354367285 4147.596377656184,2427.2086678199257 4112.182545562306,2501.5777152170695 4069.2989515262257,2591.633262692838 4066.4916283893917,2695.764113201956 4043.6461698029343,2792.8573121943996 4020.8007112164773,2889.950511186843 3997.95525263002,2987.043710179286 3975.1097940435625,3084.1369091717293" />
    <path d="M9183.874351755816,2090.359460660839 C 9155.317528522744,2118.9162838939105 9126.760705289673,2147.473107126982 9098.203882056601,2176.0299303600536 9069.64705882353,2204.586753593125 9049.438099961286,2245.2983166797576 9012.533412357387,2261.7004000592683 8991.014466546125,2271.264375975385 8966.842495184472,2250.2776707660396 8943.997036598015,2244.5663061194255 8921.151578011559,2238.854941472811 8869.264624899079,2250.151010624653 8875.460660838644,2227.432212179582 8893.804177634203,2160.1726505958654 8955.419765891244,2113.204919247296 8995.399318417543,2056.091272781153 9035.378870943843,1998.9776263150095 9075.358423470145,1941.8639798488666 9115.337975996445,1884.7503333827235" />
    <path d="M8224.365091124611,2193.1640242998965 C 8195.80826789154,2358.7935990517117 8167.251444658468,2524.4231738035264 8138.694621425397,2690.0527485553416 8110.137798192325,2855.682323307157 8058.718282529703,3018.964614106904 8053.024151726182,3186.941472810787 8047.1903665177315,3359.0381364600785 8087.292339605868,3529.623351607646 8104.426433545711,3700.964291006075 8121.560527485554,3872.3052304045045 8113.152941751966,4048.163630531291 8155.82871536524,4214.987109201364 8177.434867090365,4299.447520490486 8247.210549711068,4363.4825900133355 8292.901466883983,4437.730330419322 8338.592384056898,4511.978070825308 8370.348095585476,4596.872353965547 8429.974218402727,4660.47355163728 8459.723234492682,4692.205835466564 8509.933323455329,4694.741739516966 8549.912875981629,4711.875833456809 8589.892428507928,4729.009927396652 8634.089086026117,4738.519497752513 8669.851533560528,4763.278115276337 8709.69705229418,4790.863474399634 8738.3879093199,4831.81449103571 8772.656097199586,4866.082678915395 8806.924285079273,4900.350866795081 8832.699599611526,4946.081343233323 8875.460660838644,4968.887242554453 8921.921996372119,4993.666621505639 8978.265224477702,4991.732701140911 9029.66750629723,5003.155430434139 9081.069788116758,5014.578159727367 9132.472069936288,5026.000889020596 9183.874351755816,5037.423618313825" />
    <path d="M4317.791672840422,2912.7959697733 C 4346.348496073493,2901.373240480071 4374.905319306565,2889.950511186843 4403.462142539636,2878.5277818936142 4432.018965772708,2867.1050526003855 4458.794449528279,2839.203233562166 4489.132612238851,2844.259594013928 4534.552594011442,2851.829590976027 4569.0917172914515,2889.9505111868425 4609.071269817751,2912.7959697733 4649.050822344051,2935.6414283597574 4689.030374870352,2958.4868869462143 4729.009927396652,2981.3323455326718" />
    <path d="M4797.546303156024,2844.259594013928 C 4814.680397095866,2952.7755222996 4831.81449103571,3061.291450585272 4848.948584975552,3169.807378870944 4866.082678915395,3278.323307156616 4969.918555650921,3410.3279884597114 4900.350866795081,3495.35516372796 4823.630093686952,3589.1249975267847 4660.473551637279,3529.623351607646 4540.534894058379,3546.7574455474887 4420.596236479479,3563.8915394873316 4301.377697391083,3587.1907477243444 4180.718921321678,3598.1597273670177 4172.675002917051,3598.890992676529 4169.296192028449,3586.736998073789 4163.584827381835,3581.025633427175 4157.8734627352205,3575.3142687805607 4139.226365109565,3567.503723653545 4146.450733441991,3563.891539487332 4161.7759329549335,3556.228939730861 4180.718921321677,3563.891539487332 4197.85301526152,3563.891539487332 4214.987109201364,3563.891539487332 4249.255297081049,3581.025633427175 4249.255297081049,3563.891539487332 4249.255297081049,3539.6602714586315 4214.987109201364,3529.623351607646 4197.85301526152,3512.489257667803 4180.718921321677,3495.35516372796 4170.211446618422,3465.83911848356 4146.450733441991,3461.086975848274 4130.6102579910375,3457.918880758083 4123.605274855534,3483.9324344347315 4112.182545562306,3495.35516372796 4100.759816269077,3506.777893021189 4087.30378332297,3542.7685475041358 4077.91435768262,3529.623351607646 4046.4212666803664,3485.5330242044906 4043.646169802934,3426.8187879685884 4026.512075863091,3375.4165061490594 4009.377981923248,3324.0142243295304 3975.1097940435625,3275.3924231836645 3975.1097940435625,3221.209660690473 3975.1097940435625,3192.6528374574013 4009.377981923248,3266.9005778633873 4026.512075863091,3289.7460364498447 4043.646169802934,3312.591495036302 4068.883897267088,3331.1910309626205 4077.91435768262,3358.2824122092165 4084.0627429673355,3376.727568063363 4071.537185332816,3516.8690069080385 4077.91435768262,3529.623351607646 4085.9914470255203,3545.777530293446 4112.182545562306,3541.0460809008746 4129.316639502149,3546.7574455474887 4146.450733441992,3552.4688101941033 4163.584827381835,3558.1801748407174 4180.718921321678,3563.891539487332" />
    <path d="M0,7607.537709290266 C 222.74322121795828,7493.31041635798 445.4864424359164,7379.083123425693 668.2296636538747,7264.855830493407 890.9728848718329,7150.6285375611205 1117.6362364246645,7043.742335520484 1336.4593273077494,6922.173951696548 1529.1127879234216,6815.144251354508 1713.4093939842942,6693.719365831976 1901.8844273225666,6579.492072899689 2090.359460660839,6465.264779967403 2274.2023695476314,6343.0191308871945 2467.3095273373838,6236.810194102831 2503.742026009173,6216.772319833347 2547.268632389984,6213.964735516373 2587.248184916284,6202.542006223145 2627.2277374425844,6191.119276929916 2698.354153361946,6208.904188356359 2707.186842495185,6168.2738183434585 2732.780656904646,6050.542272059936 2684.3413839087275,5928.396503185658 2672.918654615499,5808.4578456067575 2661.49592532227,5688.519188027857 2627.5423000888895,5568.610072656829 2638.650466735813,5448.6418728700555 2656.4141700898995,5256.793876645925 2718.609571788413,5071.691806193511 2758.5891243147134,4883.216772855239 2798.5686768410137,4694.741739516966 2798.3537478405547,4492.986784289699 2878.5277818936142,4317.791672840422 2956.4872272806015,4147.435847735524 3106.9823677581867,4020.800711216477 3221.209660690473,3872.3052304045045 3605.823749287437,3372.3069152284515 3423.866877520366,3551.2851541614473 3718.098384945918,3289.7460364498447 3885.1114118823407,3141.290012506358 3803.5312928383273,3152.673284931101 3923.7075122240335,3152.673284931101 3940.8416061638763,3152.673284931101 3957.9757001037196,3152.673284931101 3975.1097940435625,3152.673284931101" />
    <path d="M8224.365091124611,3495.35516372796 C 8151.451212247109,3422.4412848504576 8173.655793627196,3466.0193087335933 8361.437842643356,3409.6846940287455 8418.551489109499,3392.5506000889027 8473.224780580307,3355.304712136143 8532.778782041785,3358.2824122092165 8594.215314105413,3361.354238812398 8647.006074974071,3403.973329382131 8704.119721440215,3426.8187879685884 8761.233367906358,3449.664246555046 8828.975746853748,3455.068238274384 8875.460660838644,3495.35516372796 8964.332867848914,3572.3777431368608 8960.385631910909,3724.000268497904 9046.801600237073,3803.768854645133 9082.658480628234,3836.867513467743 9138.183434582901,3838.037042524819 9183.874351755816,3855.1711364646617 9229.56526892873,3872.3052304045045 9275.256186101646,3889.439324344348 9320.94710327456,3906.5734182841907" />
    <path d="M9526.556230552675,3735.2324788857613 C 9526.556230552675,3718.0983849459185 9526.556230552675,3700.964291006075 9526.556230552675,3683.8301970662324 9526.556230552675,3666.6961031263895 9514.440596538325,3644.5435492610536 9526.556230552675,3632.4279152467034 9538.671864567024,3620.312281232353 9560.824418432361,3632.4279152467034 9577.958512372204,3632.4279152467034 9595.092606312048,3632.4279152467034 9617.245160177383,3620.312281232353 9629.360794191733,3632.4279152467034 9646.012140445897,3649.0792615008677 9640.78352348496,3678.118832419618 9646.494888131576,3700.964291006075 9652.20625277819,3723.8097495925326 9674.160218125673,3748.4381946569383 9663.62898207142,3769.500666765447 9655.966382314948,3784.8258662783896 9629.360794191733,3769.500666765447 9612.22670025189,3769.500666765447 9595.092606312046,3769.500666765447 9577.958512372204,3769.500666765447 9560.824418432361,3769.500666765447" />
    <path d="M4729.009927396652,4146.450733441991 C 4751.855385983109,4146.450733441991 4774.7008445695665,4146.450733441991 4797.546303156024,4146.450733441991 4820.391761742481,4146.450733441991 4859.636459846153,4168.367878277413 4866.082678915395,4146.450733441991 4893.526467697776,4053.1418515818978 4877.505408208624,3952.264335457105 4883.216772855239,3855.1711364646617 4888.928137501853,3758.0779374722183 4894.639502148467,3660.9847384797754 4900.350866795081,3563.891539487332" />
    <path d="M9389.483479033932,4146.450733441991 C 9389.483479033932,4163.584827381835 9389.483479033932,4180.718921321677 9389.483479033932,4197.85301526152 9389.483479033932,4214.987109201364 9374.158279520989,4241.592697324578 9389.483479033932,4249.255297081049 9410.54595114244,4259.786533135304 9435.174396206847,4237.832567787821 9458.019854793303,4232.121203141207 9480.86531337976,4226.409838494593 9512.427094730028,4233.825956964891 9526.556230552675,4214.987109201364 9548.229335549951,4186.089635871662 9471.292648671488,4141.576097164409 9492.28804267299,4112.182545562306 9540.164907234563,4045.1549351761028 9652.20625277819,4043.6461698029343 9697.897169951104,3975.1097940435625 9713.737645402058,3951.3490808671313 9697.897169951104,3917.9961475774194 9697.897169951104,3889.439324344348 9697.897169951104,3860.8825011112763 9697.897169951104,3832.3256778782047 9697.897169951104,3803.768854645133" />
    <path d="M9869.238109349535,3975.1097940435625 C 9863.52674470292,3952.264335457105 9857.815380056307,3929.418876870648 9852.104015409692,3906.5734182841907 9846.392650763077,3883.7279596977332 9824.438685415595,3859.0995146333275 9834.969921469848,3838.037042524819 9842.63252122632,3822.7118430118767 9869.238109349533,3838.037042524819 9886.372203289377,3838.037042524819 9903.50629722922,3838.037042524819 9924.395005573217,3827.3334588962666 9937.774485108906,3838.037042524819 9957.71943560582,3853.9930029223497 9960.619943695363,3883.7279596977337 9972.042672988591,3906.5734182841907 9983.46540228182,3929.418876870648 10011.320059032778,3950.0638032210636 10006.310860868278,3975.1097940435625 10002.768822877853,3992.8199839956874 9972.042672988593,3986.532523336791 9954.90857904875,3992.2438879834053 9937.774485108906,3997.95525263002 9920.640391169063,4003.666617276634 9903.50629722922,4009.377981923248" />
    <path d="M9458.019854793303,3906.5734182841907 C 9446.597125500075,3906.5734182841907 9435.174396206847,3906.5734182841907 9423.751666913618,3906.5734182841907 9412.32893762039,3906.5734182841907 9395.819669214314,3897.0691330136183 9389.483479033932,3906.5734182841907 9379.97919376336,3920.829846190049 9389.483479033932,3940.841606163877 9389.483479033932,3957.9757001037196 9389.483479033932,3975.1097940435625 9405.526631121016,4003.3617998905916 9389.483479033932,4009.377981923248 9346.701740135042,4025.421134010332 9298.101644688104,4009.377981923248 9252.41072751519,4009.377981923248 9206.719810342274,4009.377981923248 9159.94085810858,3999.4662303427735 9115.337975996445,4009.377981923248 9090.404206897658,4014.9188195007564 9106.555215808767,4076.2153291698196 9081.069788116758,4077.91435768262 8921.099238417766,4088.579060995886 8761.328581884729,4033.6453307977113 8601.315157801157,4043.6461698029343 8585.19243811052,4044.653839783599 8578.469699214698,4066.4916283893913 8567.04696992147,4077.91435768262 8555.624240628242,4089.3370869758483 8548.103981554726,4117.290945399953 8532.778782041785,4112.182545562306 8515.644688101942,4106.471180915692 8521.356052748557,4077.91435768262 8515.644688101942,4060.780263742777 8509.933323455327,4043.6461698029343 8498.510594162099,4009.377981923248 8498.510594162099,4009.377981923248 8498.510594162099,4009.377981923248 8509.933323455327,4043.6461698029343 8515.644688101942,4060.780263742777 8521.356052748557,4077.91435768262 8517.751187548287,4102.1641492333065 8532.778782041785,4112.182545562306 8543.40489601306,4119.266621543155 8555.624240628242,4100.759816269077 8567.04696992147,4095.048451622463 8578.469699214698,4089.3370869758483 8607.026522447772,4066.4916283893913 8601.315157801157,4077.91435768262 8579.343099302381,4121.858474680172 8544.201511335013,4157.8734627352205 8515.644688101942,4197.85301526152 8487.08786486887,4237.832567787821 8400.495608557409,4278.48685971333 8429.974218402727,4317.791672840422 8467.824669056321,4368.258940378546 8555.624240628242,4329.21440213365 8618.449251741,4334.925766780264 8681.274262853758,4340.637131426878 8743.937327864987,4355.559136120901 8806.924285079273,4352.059860720107 8889.954974505878,4347.447044640851 8963.642875746866,4283.523484960735 9046.801600237073,4283.523484960735 9067.394218323314,4283.523484960735 9081.069788116758,4306.368943547193 9098.203882056601,4317.791672840422 9115.337975996445,4329.214402133651 9132.472069936288,4340.637131426879 9149.606163876131,4352.059860720107" />
    <path d="M10280.456363905765,4214.987109201364 C 10280.456363905765,4203.564379908135 10280.456363905765,4192.141650614906 10280.456363905765,4180.718921321678 10280.456363905765,4089.3370869758446 10289.594547340383,4153.304371017955 10143.38361238702,4043.6461698029343 10097.692695214106,4009.3779819232486 10062.983468715078,3947.9256821447266 10006.310860868278,3940.8416061638763 9977.974556944879,3937.2995681734515 10006.310860868278,3997.9552526300195 10006.310860868278,4026.512075863091 10006.310860868278,4055.0688990961626 9991.92190506012,4087.5157641768924 10006.310860868278,4112.182545562306 10034.799539901476,4161.020281047788 10086.26996592088,4192.141650614906 10126.249518447179,4232.121203141207 10166.229070973479,4272.100755667507 10206.208623499779,4312.0803081938075 10246.188176026079,4352.059860720107" />
    <path d="M5243.03274559194,5482.910060749741 C 5482.910060749741,5317.280485997926 5722.787375907542,5151.650911246111 5962.6646910653435,4986.021336494296 6202.542006223145,4820.39176174248 6457.966719995046,4675.278713200645 6682.296636538747,4489.132612238851 6731.436996955671,4448.356568488638 6739.4102830048905,4374.905319306565 6767.967106237962,4317.791672840422 6796.523929471034,4260.6780263742785 6814.434399307117,4196.854817680641 6853.637575937177,4146.450733441991 6861.478211263188,4136.369916594262 6876.483034523634,4157.8734627352205 6887.905763816862,4163.584827381835 6899.328493110091,4169.296192028449 6919.4980557894105,4168.231407088367 6922.173951696548,4180.718921321678 6937.7769720066835,4253.533016102309 6933.596680989777,4329.21440213365 6939.308045636391,4403.462142539636 6945.0194102830055,4477.709882945623 6950.73077492962,4551.957623351608 6956.442139576234,4626.205363757595" />
    <path d="M10040.579048747964,4523.400800118537 C 10006.310860868278,4511.978070825308 9972.042672988593,4500.555341532079 9937.774485108906,4489.132612238851 9903.50629722922,4477.709882945622 9856.643026467125,4483.761897688867 9834.969921469848,4454.864424359164 9793.848096014226,4400.035323751667 9878.845840040542,4301.90639936588 9834.969921469848,4249.255297081049 9816.68828873206,4227.317337795703 9777.856275003705,4249.255297081049 9749.299451770634,4249.255297081049 9720.742628537562,4249.255297081049 9686.474440657876,4232.121203141206 9663.62898207142,4249.255297081049 9632.978583045535,4272.243096350463 9629.360794191733,4317.791672840422 9612.22670025189,4352.059860720107 9595.092606312046,4386.328048599793 9586.45446338045,4426.386596639065 9560.824418432361,4454.864424359164 9505.7214775065,4516.089914276788 9406.67171729286,4527.616643204638 9355.215291154245,4591.937175877908 9347.23731095548,4601.909651126365 9378.060749740704,4603.359905171137 9389.483479033932,4609.071269817751 9442.170264463824,4635.414662532698 9413.125552942342,4633.289439738445 9475.153948733147,4591.937175877908 9492.28804267299,4580.51444658468 9533.068188166524,4577.204860839771 9526.556230552675,4557.668987998222 9517.461452301292,4530.384653244075 9371.182967982146,4452.531590135281 9355.215291154245,4420.596236479479 9344.684055099991,4399.53376437097 9366.638020447474,4374.905319306565 9372.349385094089,4352.059860720107 9378.060749740704,4329.21440213365 9383.772114387317,4306.368943547192 9389.483479033932,4283.523484960735" />
    <path d="M9149.606163876131,4386.328048599793 C 9149.606163876131,4409.17350718625 9149.606163876131,4432.018965772707 9149.606163876131,4454.864424359164 9149.606163876131,4477.709882945622 9165.76034256193,4507.246621432736 9149.606163876131,4523.400800118537 9133.45198519033,4539.554978804337 9103.915246703216,4523.400800118537 9081.069788116758,4523.400800118537 8983.976589124319,4523.400800118537 9030.809779226554,4537.108075270413 8943.997036598015,4471.998518299008 8921.151578011559,4454.864424359164 8888.231660432763,4395.054237291241 8875.460660838644,4420.596236479479 8856.865804750416,4457.785948655935 8898.3061194251,4500.555341532079 8909.728848718329,4540.534894058379 8921.151578011557,4580.51444658468 8953.016866685653,4619.884316242908 8943.997036598015,4660.47355163728 8938.456199020507,4685.407320736066 8898.3061194251,4683.319010223738 8875.460660838644,4694.741739516966 8852.615202252187,4706.164468810194 8831.155553107972,4737.0870167395515 8806.924285079273,4729.009927396652 8789.79019113943,4723.2985627500375 8818.347014372499,4694.741739516966 8824.058379019114,4677.607645577123 8829.769743665727,4660.47355163728 8826.743736294105,4637.041916256233 8841.192472958957,4626.205363757595 8854.899748110833,4615.924907393689 8875.460660838644,4626.205363757595 8892.594754778487,4626.205363757595 8909.72884871833,4626.205363757595 8928.339703680642,4619.246549127652 8943.997036598015,4626.205363757595 8981.63258104508,4642.932272400734 9012.533412357387,4671.8962809305085 9046.801600237073,4694.741739516966 9081.06978811676,4717.587198103423 9120.483804093801,4734.155755494007 9149.606163876131,4763.278115276337 9162.37716347025,4776.049114870456 9161.02889316936,4797.546303156023 9166.740257815974,4814.680397095866 9172.451622462588,4831.81449103571 9178.162987109203,4848.948584975552 9183.874351755816,4866.082678915395" />
    <path d="M4694.741739516966,5962.6646910653435 C 4946.041783967996,5802.746480960142 5197.341828419026,5642.828270854942 5448.6418728700555,5482.910060749741 5699.941917321085,5322.99185064454 5957.332982578744,5172.265101913036 6202.542006223145,5003.155430434139 6375.930969650233,4883.576834967182 6507.046275365075,4708.77074999369 6682.296636538747,4591.937175877908 6701.305207079892,4579.264795517145 6727.987553711661,4591.937175877908 6750.833012298119,4591.937175877908 6773.678470884576,4591.937175877908 6796.523929471034,4591.937175877908 6819.369388057491,4591.937175877908" />
    <path d="M5380.105497110683,4626.205363757595 C 5328.703215291154,4637.628093050823 5277.300933471626,4649.050822344052 5225.898651652097,4660.47355163728 5174.496369832568,4671.8962809305085 5114.276759240462,4663.770864573728 5071.69180619351,4694.741739516966 5042.478769409861,4715.987584450529 5048.846347607053,4763.278115276338 5037.423618313825,4797.546303156024 5026.000889020596,4831.81449103571 5036.55650629568,4886.597482616799 5003.155430434139,4900.350866795081 4923.761979456098,4933.042287786039 4831.81449103571,4911.77359608831 4746.144021336495,4917.484960734924 4660.47355163728,4923.196325381538 4570.587164954764,4907.467537102796 4489.132612238851,4934.6190546747675 4467.459507241574,4941.843423007193 4489.132612238851,4980.3099718476815 4489.132612238851,5003.155430434139 4489.132612238851,5026.000889020596 4476.460231878088,5052.6832356523655 4489.132612238851,5071.69180619351 4503.3007642005505,5092.9440341360605 4534.823529411765,5094.537264779969 4557.668987998222,5105.959994073197 4580.51444658468,5117.382723366426 4603.359905171137,5128.805452659654 4626.205363757595,5140.228181952883" />
    <path d="M7093.514891094977,4626.205363757595 C 7173.473996147578,4660.47355163728 7253.4331012001785,4694.741739516966 7333.392206252779,4729.009927396652 7413.35131130538,4763.278115276337 7523.752286362933,4760.289595966886 7573.26952141058,4831.81449103571 7601.235386220581,4872.2096290946 7516.155874944437,4911.77359608831 7487.599051711365,4951.75314861461 7459.0422284782935,4991.73270114091 7430.485405245222,5031.7122536672105 7401.92858201215,5071.69180619351" />
    <path d="M9286.678915394874,4763.278115276337 C 9286.678915394874,4774.7008445695665 9286.678915394874,4786.123573862795 9286.678915394874,4797.546303156024 9286.678915394874,4808.969032449252 9276.46211571958,4826.7060911980625 9286.678915394874,4831.81449103571 9317.752098517098,4847.3510825968215 9355.215291154245,4843.237220328938 9389.483479033932,4848.948584975552 9423.751666913618,4854.659949622166 9471.443517751413,4838.289979019959 9492.28804267299,4866.082678915395 9516.27577418877,4898.066320936436 9492.28804267299,4946.041783967996 9492.28804267299,4986.021336494296 9492.28804267299,5026.000889020596 9508.036759961658,5069.212987066302 9492.28804267299,5105.959994073197 9485.538592406418,5121.708711361866 9458.019854793303,5105.959994073197 9440.88576085346,5105.959994073197 9423.751666913617,5105.959994073197 9406.617572973775,5105.959994073197 9389.483479033932,5105.959994073197" />
    <path d="M3495.35516372796,4797.546303156024 C 3478.2210697881173,4820.391761742481 3461.086975848274,4843.237220328938 3443.952881908431,4866.082678915395 3426.8187879685884,4888.928137501853 3414.849732648386,4916.77974862718 3392.5506000889022,4934.6190546747675 3383.630947065109,4941.754777093803 3369.7051415024453,4934.6190546747675 3358.2824122092165,4934.6190546747675 3346.859682915988,4934.6190546747675 3332.0913136724307,4942.696144017667 3324.0142243295304,4934.6190546747675 3315.93713498663,4926.541965331867 3324.0142243295304,4911.77359608831 3324.0142243295304,4900.350866795081 3324.0142243295304,4888.928137501853 3324.0142243295304,4877.5054082086235 3324.0142243295304,4866.082678915395" />
    <path d="M7607.537709290266,4831.81449103571 C 7653.22862646318,4831.81449103571 7698.919543636095,4831.81449103571 7744.610460809009,4831.81449103571 7790.301377981924,4831.81449103571 7836.824790492396,4823.13221584177 7881.683212327753,4831.81449103571 8014.9672766533,4857.611406711622 8144.405986072012,4900.350866795082 8275.767372944141,4934.6190546747675 8407.12875981627,4968.887242554453 8541.060577374257,4994.493299585068 8669.851533560528,5037.423618313825 8696.942914807123,5046.454078729356 8715.542450733443,5071.69180619351 8738.3879093199,5088.825900133354 8761.233367906358,5105.959994073197 8797.89382466374,5113.1368007062865 8806.924285079273,5140.228181952883 8813.436242693122,5159.764054794432 8784.078826492814,5174.496369832568 8772.656097199586,5191.6304637724115 8761.233367906358,5208.764557712254 8749.810638613128,5225.898651652097 8738.3879093199,5243.03274559194" />
    <path d="M3289.7460364498447,4866.082678915395 C 3261.189213216773,4883.216772855239 3232.6323899837016,4900.350866795081 3204.07556675063,4917.484960734924 3175.5187435175585,4934.6190546747675 3150.4264334190916,4959.738289306546 3118.4050970514154,4968.887242554453 3106.125475106359,4972.395705967327 3095.559638464958,4957.464513261224 3084.1369091717293,4951.75314861461 3072.7141798785005,4946.041783967996 3061.2914505852723,4940.330419321382 3049.8687212920436,4934.6190546747675" />
    <path d="M6819.369388057491,4866.082678915395 C 6733.698918358276,4917.484960734924 6648.028448659061,4968.887242554453 6562.357978959846,5020.289524373982 6476.6875092606315,5071.691806193511 6385.27303188219,5114.551523317577 6305.346569862202,5174.496369832568 6276.449096532499,5196.169474829845 6300.47193358462,5256.305539470124 6271.0783819825165,5277.300933471626 6212.29127877831,5319.29172147463 6124.344629095963,5303.970376330332 6065.4692547044015,5345.837309230998 5607.431706917752,5671.55289876817 5189.859226259423,6052.157963396621 4729.009927396652,6373.882945621574 4655.708136920455,6425.055893689862 4569.0917172914515,6453.842050674175 4489.132612238851,6493.821603200475 4409.17350718625,6533.801155726775 4317.931972630569,6556.529697821442 4249.255297081049,6613.760260779375 4210.011482481324,6646.46343961248 4203.564379908135,6705.142095125204 4180.718921321678,6750.833012298119 4157.8734627352205,6796.523929471034 4135.028004148763,6842.214846643948 4112.182545562306,6887.905763816862" />
    <path d="M2912.7959697733,5208.764557712254 C 2907.084605126686,5220.187287005482 2901.373240480071,5231.610016298711 2895.661875833457,5243.03274559194 2889.950511186843,5254.455474885169 2867.901667922339,5270.216857490776 2878.5277818936142,5277.300933471626 2897.536352434759,5289.97331383239 2924.2186990665286,5277.300933471626 2947.064157652986,5277.300933471626 2969.909616239443,5277.300933471626 2997.1245866910353,5290.737985632588 3015.6005334123574,5277.300933471626 3064.70103533135,5241.591477530541 3095.559638464958,5185.919099125797 3135.5391909912582,5140.228181952883 3175.5187435175585,5094.537264779968 3215.4982960438588,5048.846347607054 3255.477848570159,5003.155430434139" />
    <path d="M7504.733145651208,5071.69180619351 C 7561.8467921173515,5060.269076900282 7618.960438583495,5048.846347607053 7676.074085049638,5037.423618313825 7733.187731515781,5026.000889020596 7789.395720683351,4998.036080101958 7847.415024448067,5003.155430434139 7986.8889676036715,5015.461954830222 8121.560527485554,5060.269076900282 8258.633279004298,5088.825900133354 8395.70603052304,5117.382723366425 8532.778782041785,5145.939546599497 8669.851533560528,5174.496369832568" />
    <path d="M3358.2824122092165,5140.228181952883 C 3352.5710475626024,5168.785005185954 3346.859682915988,5197.341828419026 3341.1483182693737,5225.898651652097 3335.436953622759,5254.455474885169 3299.78295630083,5295.414942665511 3324.0142243295304,5311.569121351312 3357.616947155296,5333.970936568489 3403.973329382131,5300.146392058083 3443.952881908431,5294.435027411469 3592.161352187485,5273.262388800175 3539.660271458631,5309.6092908432265 3615.2938213068605,5208.764557712254 3632.4279152467034,5185.9190991257965 3666.6961031263895,5168.785005185954 3666.6961031263895,5140.228181952883 3666.6961031263895,5119.635563866643 3632.4279152467034,5117.382723366425 3615.2938213068605,5105.959994073197 3536.182024383531,5053.21879612431 3581.549563818188,5061.096991594996 3478.221069788117,5123.094088013039 3449.6642465550453,5140.228181952883 3421.107423321974,5157.362275892725 3392.5506000889022,5174.496369832568" />
    <path d="M2844.259594013928,5585.714624388799 C 2838.548229367314,5568.580530448956 2832.8368647206994,5551.4464365091135 2827.1255000740853,5534.31234256927 2821.414135427471,5517.178248629427 2806.4493681438175,5500.620250701866 2809.9914061342424,5482.910060749741 2813.1595012244334,5467.069585298787 2832.8368647206994,5460.064602163284 2844.259594013928,5448.6418728700555 2855.682323307157,5437.219143576827 2862.8559265955773,5418.291648814879 2878.5277818936142,5414.37368499037 2911.7728073586627,5406.062428624108 2947.064157652986,5414.37368499037 2981.3323455326718,5414.37368499037 3015.6005334123574,5414.37368499037 3054.3837900521594,5431.37546734441 3084.1369091717293,5414.37368499037 3104.582784641991,5402.690327578792 3095.559638464958,5368.682767817455 3101.2710031115726,5345.837309230998 3106.9823677581867,5322.99185064454 3102.898261977395,5295.023030699078 3118.4050970514154,5277.300933471626 3145.525764847147,5246.305884562219 3186.9414728107868,5231.610016298711 3221.209660690473,5208.764557712254 3255.4778485701586,5185.9190991257965 3289.7460364498447,5163.07364053934 3324.0142243295304,5140.228181952883" />
    <path d="M13604.470588235296,5311.569121351312 C 13581.625129648839,5294.435027411469 13558.77967106238,5277.300933471626 13535.934212475924,5260.166839531783 13513.088753889466,5243.03274559194 13494.235351386715,5218.523653955949 13467.397836716551,5208.764557712254 13429.44385948962,5194.963111447916 13387.438731663951,5197.341828419026 13347.459179137652,5191.6304637724115 13307.479626611352,5185.919099125797 13252.93097309548,5143.1069885224915 13227.52052155875,5174.496369832568 13199.286824213468,5209.373290082622 12910.953626954382,5898.364271364293 12884.838642761892,5928.396503185658 12847.174965955084,5971.709731513486 12770.611349829605,5939.819232478886 12713.497703363462,5945.5305971255 12656.38405689732,5951.241961772114 12599.270410431176,5956.953326418729 12542.156763965033,5962.6646910653435" />
    <path d="M4180.718921321678,7401.92858201215 C 4163.584827381835,7339.103570899393 4146.450733441992,7276.278559786636 4129.316639502149,7213.453548673879 4112.182545562306,7150.628537561121 4062.1205405817686,7088.1537837390115 4077.91435768262,7024.978515335606 4094.5944876164426,6958.2579956003165 4169.296192028449,6922.173951696548 4214.987109201364,6870.771669877019 4260.6780263742785,6819.36938805749 4291.437012295512,6749.04135036018 4352.059860720107,6716.564824418433 4364.968729402465,6709.649359052884 5020.750985413461,6518.983261129381 5037.423618313825,6510.955697140318 5088.36591520705,6486.427924562098 5117.382723366425,6430.996592087717 5157.362275892725,6391.017039561417 5197.341828419025,6351.037487035117 5230.638370080412,6303.005399039663 5277.300933471626,6271.0783819825165 5284.760723444572,6265.974315158922 5682.786670546038,6069.7155639501925 5688.519188027856,6065.4692547044015 5696.6007870376925,6059.482885067486 6196.189027447212,5590.082297297253 6202.542006223145,5585.714624388799 6290.967307700426,5524.922229623168 6396.728404208032,5494.33279004297 6493.821603200475,5448.6418728700555 6859.092113496539,5276.749868024848 6680.1763526537925,5334.0530172493145 7024.978515335606,5260.166839531783 7104.937620388207,5243.03274559194 7183.096085337488,5210.307194413309 7264.855830493407,5208.764557712254 7487.852060256352,5204.5570816789905 7710.342272929323,5231.61001629871 7933.085494147282,5243.03274559194 8155.82871536524,5254.455474885169 8379.919471862042,5250.301459576612 8601.315157801157,5277.300933471626 8621.756335252436,5279.793759990075 8624.160616387615,5311.569121351312 8635.583345680843,5328.703215291155 8647.006074974071,5345.837309230998 8678.481038564914,5361.408236267848 8669.851533560528,5380.105497110683 8639.201134534644,5446.5146950001 8578.4696992147,5494.3327900429695 8532.778782041785,5551.446436509113 8487.08786486887,5608.560082975256 8413.44536621715,5651.830033131101 8395.70603052304,5722.787375907543 8386.945197078054,5757.830709687493 8464.242406282412,5699.941917321085 8498.510594162099,5688.519188027856 8532.778782041785,5677.096458734628 8567.368088562798,5641.906611334222 8601.315157801157,5654.2510001481705 8643.236695852112,5669.495195803063 8658.4288042673,5722.787375907543 8686.985627500371,5757.0555637872285 8715.542450733443,5791.323751666914 8744.099273966514,5825.5919395466 8772.656097199586,5859.8601274262855" />
    <path d="M3598.1597273670177,5311.569121351312 C 3660.984738479775,5300.146392058084 3723.8097495925326,5288.723662764854 3786.63476070529,5277.300933471626 3849.4597718180476,5265.878204178397 3912.284782930805,5231.610016298711 3975.1097940435625,5243.03274559194 3997.5867533292117,5247.119465462058 3975.1097940435625,5288.723662764854 3975.1097940435625,5311.569121351312 3975.1097940435625,5334.414579937769 3975.1097940435625,5357.260038524226 3975.1097940435625,5380.105497110683" />
    <path d="M4557.668987998222,5140.228181952883 C 4546.246258704994,5168.785005185954 4534.823529411765,5197.341828419026 4523.400800118537,5225.898651652097 4511.978070825308,5254.455474885169 4509.566211589441,5288.581322081898 4489.132612238851,5311.569121351312 4461.770630632185,5342.351350658811 4420.596236479479,5357.260038524226 4386.328048599793,5380.105497110683 4352.059860720107,5402.950955697141 4323.908931675236,5440.564783527155 4283.523484960735,5448.6418728700555 4233.431503315737,5458.660269199056 4197.021311768971,5372.881128778258 4146.450733441991,5380.105497110683 4126.310790207039,5382.982631858534 4069.0481814617624,5473.672965601077 4043.6461698029343,5482.910060749741 3957.097785565097,5514.382200472592 3856.0490510032846,5485.706108906577 3769.500666765447,5517.178248629427 3746.7282804292886,5525.4591163880295 3735.232478885761,5551.446436509113 3718.098384945918,5568.580530448956 3700.964291006075,5585.714624388799 3675.2042693506774,5597.294369003716 3666.6961031263895,5619.982812268485 3656.6691330719623,5646.721399080291 3666.6961031263895,5677.096458734628 3666.6961031263895,5705.6532819676995 3666.6961031263895,5734.210105200771 3656.6691330719623,5764.585164855108 3666.6961031263895,5791.323751666914 3675.2042693506774,5814.012194931683 3700.964291006075,5825.5919395466 3718.098384945918,5842.726033486443 3735.232478885761,5859.860127426286 3746.5128674960333,5901.790915062444 3769.500666765447,5894.128315305972 3801.09437492821,5883.597079251718 3803.768854645133,5837.014668839829 3820.902948584976,5808.4578456067575 3838.037042524819,5779.901022373686 3843.748407171433,5739.921469847386 3872.3052304045045,5722.787375907543 3941.5657001233553,5681.231094076232 4042.0537712593095,5728.592773343855 4112.182545562306,5688.519188027856 4141.935664681875,5671.517405673816 4084.7679952585568,5606.27553711661 4112.182545562306,5585.714624388799 4130.458912431472,5572.007349236925 4157.8734627352205,5585.714624388799 4180.718921321678,5585.714624388799 4203.564379908135,5585.714624388799 4226.409838494592,5585.714624388799 4249.255297081049,5585.714624388799" />
    <path d="M9355.215291154245,5414.37368499037 C 9326.658467921174,5391.528226403912 9298.101644688102,5368.682767817455 9269.54482145503,5345.837309230998 9240.987998221959,5322.99185064454 9218.827741969239,5288.055822768064 9183.874351755816,5277.300933471626 9140.203932232691,5263.8638813106645 9092.492517409988,5277.300933471626 9046.801600237073,5277.300933471626 9001.110683064158,5277.300933471626 8954.249676134828,5267.026896375511 8909.728848718329,5277.300933471626 8877.278998345288,5284.78936048079 8852.615202252186,5311.569121351312 8824.058379019114,5328.703215291155 8795.501555786042,5345.837309230998 8761.93646902431,5356.556937406274 8738.3879093199,5380.105497110683 8730.310819977,5388.182586453584 8738.3879093199,5402.950955697141 8738.3879093199,5414.37368499037 8738.3879093199,5425.796414283598 8728.171109644605,5443.533473032408 8738.3879093199,5448.6418728700555 8761.473528646142,5460.184682533176 8789.592439331906,5397.041839243003 8806.924285079273,5414.37368499037 8824.159689159425,5431.609089070524 8749.66524430538,5471.414634302639 8772.656097199586,5482.910060749741 8788.810275885386,5490.987150092641 8806.92428507927,5471.487331456512 8824.058379019114,5465.775966809898 8841.192472958957,5460.064602163284 8879.841077561137,5466.163539760031 8875.460660838644,5448.6418728700555 8868.53461386676,5420.937684982515 8829.769743665729,5414.37368499037 8806.924285079273,5397.2395910505265 8784.078826492814,5380.105497110683 8751.158908914018,5371.379308419235 8738.3879093199,5345.837309230998 8730.310819977,5329.683130545197 8772.656097199586,5357.260038524227 8789.79019113943,5362.971403170841 8806.924285079273,5368.682767817455 8828.421473364839,5367.334497516565 8841.192472958957,5380.105497110683 8887.238966834482,5426.151990986208 8921.151578011559,5482.910060749741 8961.131130537859,5534.31234256927 9001.110683064158,5585.714624388799 9048.257920506161,5632.270272123974 9081.069788116758,5688.519188027856 9089.703161601652,5703.319256859104 9081.069788116758,5722.787375907542 9081.069788116758,5739.921469847385 9081.069788116758,5823.632109038509 9093.1854221311,5779.208117652572 9012.533412357387,5859.8601274262855 8927.842857912214,5944.550681871458 8976.305393969615,5928.396503185658 8875.460660838644,5928.396503185658 8852.615202252187,5928.396503185658 8827.357884429863,5938.613302860953 8806.924285079273,5928.396503185658 8796.707485403978,5923.288103348011 8806.924285079273,5905.5510445992 8806.924285079273,5894.128315305972 8806.924285079273,5882.705586012743 8806.924285079273,5871.282856719515 8806.924285079273,5859.8601274262855" />
    <path d="M13364.593273077495,5277.300933471626 C 13313.190991257965,5380.105497110684 13261.788709438437,5482.910060749741 13210.386427618907,5585.714624388799 13158.984145799379,5688.519188027857 13069.354362089309,5779.946889254736 13056.179582160321,5894.128315305972 13049.63298138036,5950.865522065623 13124.715957919692,5985.510149651801 13158.984145799379,6031.201066824715 13272.069165802348,6181.981093495338 13204.675062972292,6168.2738183434585 13313.190991257965,6168.2738183434585 13330.325085197808,6168.2738183434585 13347.459179137652,6168.2738183434585 13364.593273077495,6168.2738183434585" />
    <path d="M4934.6190546747675,5311.569121351312 C 4911.77359608831,5328.703215291155 4888.928137501853,5345.837309230998 4866.082678915395,5362.971403170841 4843.237220328938,5380.105497110684 4824.63768440262,5405.343224574838 4797.546303156024,5414.37368499037 4743.363540662832,5432.434605821434 4679.23405323287,5393.16220920026 4626.205363757595,5414.37368499037 4607.395325522044,5421.89770028459 4642.364635205003,5466.750789302334 4626.205363757595,5482.910060749741 4597.083003975264,5512.032420532071 4557.668987998222,5528.600977922655 4523.400800118537,5551.446436509113 4489.132612238851,5574.29189509557 4459.301850579194,5605.908043504952 4420.596236479479,5619.982812268485 4393.758721809316,5629.74190851218 4363.4825900133355,5619.982812268485 4334.925766780264,5619.982812268485 4306.368943547192,5619.982812268485 4272.100755667507,5602.848718328642 4249.255297081049,5619.982812268485 4234.806560416198,5630.819364767123 4260.6780263742785,5654.2510001481705 4266.389391020893,5671.385094088014 4272.100755667507,5688.519188027857 4277.812120314121,5705.6532819676995 4283.523484960735,5722.787375907543" />
    <path d="M9526.556230552675,5311.569121351312 C 9509.422136612831,5334.414579937769 9492.28804267299,5357.260038524226 9475.153948733147,5380.105497110683 9458.019854793303,5402.950955697141 9430.677713885503,5420.937684982515 9423.751666913618,5448.6418728700555 9418.040302267003,5471.487331456513 9435.174396206847,5494.3327900429695 9440.88576085346,5517.178248629427 9446.597125500075,5540.023707215884 9469.101529948319,5564.936483473144 9458.019854793303,5585.714624388799 9419.820446192443,5657.338515515412 9355.215291154245,5711.364646614314 9303.813009334717,5774.189657727071 9252.41072751519,5837.014668839828 9178.394775628673,5886.767441899555 9149.606163876131,5962.6646910653435 9112.921718292082,6059.3782294232915 9126.760705289673,6168.2738183434585 9115.337975996445,6271.0783819825165 9103.915246703216,6373.882945621574 9108.754123484452,6479.828465575991 9081.069788116758,6579.492072899689 9076.483953012224,6596.0010792760095 9046.801600237073,6579.492072899689 9029.66750629723,6579.492072899689 9012.533412357387,6579.492072899689 8981.625496760278,6596.293434312572 8978.265224477702,6579.492072899689 8967.008451646703,6523.208208744699 8989.68795377093,6465.264779967403 8995.399318417543,6408.15113350126 9001.110683064158,6351.037487035117 9006.822047710772,6293.923840568974 9012.533412357387,6236.810194102831" />
    <path d="M13364.593273077495,6099.737442584087 C 13387.438731663951,6014.0669728848725 13410.28419025041,5928.396503185658 13433.129648836866,5842.726033486443 13455.975107423323,5757.0555637872285 13493.259850109784,5673.97945649657 13501.666024596238,5585.714624388799 13503.284327710498,5568.72244168905 13433.129648836866,5401.44867290724 13433.129648836866,5380.105497110683 13433.129648836866,5368.682767817455 13455.975107423323,5380.105497110683 13467.397836716551,5380.105497110683 13478.82056600978,5380.105497110683 13492.746371572444,5372.969774691648 13501.666024596238,5380.105497110683 13523.965157155722,5397.944803158271 13535.934212475924,5425.796414283598 13553.068306415767,5448.6418728700555 13570.20240035561,5471.487331456513 13598.487103086221,5489.255317933748 13604.470588235296,5517.178248629427 13616.437558533444,5573.024110020785 13604.470588235296,5631.405541561713 13604.470588235296,5688.519188027856 13604.470588235296,5745.632834493999 13612.11912760301,5803.260936105206 13604.470588235296,5859.8601274262855 13526.3730459952,6437.781940002991 13433.129648836866,7013.555786042377 13347.459179137652,7590.403615350423 13261.788709438437,8167.251444658469 13176.118239739222,8744.099273966514 13090.447770040008,9320.94710327456" />
    <path d="M3598.1597273670177,5414.37368499037 C 3518.200622314417,5414.37368499037 3438.241517261817,5414.37368499037 3358.2824122092165,5414.37368499037 3278.323307156616,5414.37368499037 3198.088004024641,5407.733442742601 3118.4050970514154,5414.37368499037 3105.6782115773494,5415.434258779876 3141.2505556378724,5425.796414283598 3152.673284931101,5431.507778930212 3164.09601422433,5437.219143576826 3184.9995505723973,5436.019378320521 3186.941472810787,5448.6418728700555 3197.3629211277275,5516.381286930166 3186.941472810787,5585.714624388799 3186.941472810787,5654.2510001481705 3186.941472810787,5722.787375907542 3129.119972073869,5823.064626957337 3186.941472810787,5859.8601274262855 3245.163127116322,5896.910271075262 3312.591495036302,5802.746480960142 3375.4165061490594,5774.189657727071 3438.241517261817,5745.632834493999 3498.1294818972606,5709.443479079243 3563.891539487332,5688.519188027856 3624.740613236205,5669.15811910776 3689.541561712847,5665.673729441399 3752.366572825604,5654.2510001481705 3815.1915839383614,5642.828270854942 3878.016595051119,5631.405541561713 3940.8416061638763,5619.982812268485" />
    <path d="M7915.951400207439,5414.37368499037 C 7915.951400207439,5431.507778930212 7915.951400207439,5448.6418728700555 7915.951400207439,5465.775966809898 7915.951400207439,5482.910060749741 7899.225319415388,5513.461341786749 7915.951400207439,5517.178248629427 7966.438434681981,5528.39758962377 8018.755963846496,5505.755519336199 8070.158245666025,5500.0441546895845 8121.560527485554,5494.33279004297 8172.77791708873,5479.225262604321 8224.365091124611,5482.910060749741 8255.043569166099,5485.101380609847 8281.478737590754,5505.755519336199 8310.035560823826,5517.178248629427 8338.592384056898,5528.600977922655 8367.14920728997,5540.023707215884 8395.70603052304,5551.446436509113" />
    <path d="M10246.188176026079,5448.6418728700555 C 10291.879093198993,5448.6418728700555 10337.570010371908,5448.6418728700555 10383.260927544823,5448.6418728700555 10428.951844717738,5448.6418728700555 10475.77896451701,5438.515801382202 10520.333679063566,5448.6418728700555 10685.922041430127,5486.275591589729 10834.865037502525,5580.777290128264 11000.088309379169,5619.982812268485 11255.108325614314,5680.496036459875 11514.111127574457,5722.787375907542 11771.122536672101,5774.189657727071 12028.133945769745,5825.5919395466 12285.614529303359,5874.701616861121 12542.156763965033,5928.396503185658 12553.337224312047,5930.736599537358 12519.311305378575,5928.396503185658 12507.888576085346,5928.396503185658 12496.465846792118,5928.396503185658 12481.697477548561,5920.319413842758 12473.620388205662,5928.396503185658 12444.498028423332,5957.518862967988 12427.929471032747,5996.932878945029 12405.08401244629,6031.201066824715 12382.238553859832,6065.469254704401 12354.966234237127,6097.168435363353 12336.547636686917,6134.005630463773 12329.323268354492,6148.454367128624 12359.393095273375,6111.160171877315 12370.815824566604,6099.737442584087 12382.238553859832,6088.314713290859 12388.92983376049,6065.4692547044015 12405.08401244629,6065.4692547044015 12485.854905875292,6065.4692547044015 12565.002222551491,6088.314713290859 12644.961327604091,6099.737442584087 12724.92043265669,6111.160171877315 12804.879537709292,6122.582901170545 12884.838642761892,6134.005630463773" />
    <path d="M8190.096903244926,5517.178248629427 C 8138.694621425397,5557.157801155727 8087.292339605869,5597.137353682027 8035.89005778634,5637.116906208327 7984.487775966811,5677.096458734628 7922.919388824184,5706.655792513812 7881.683212327753,5757.0555637872285 7868.338859420027,5773.365328452227 7894.0890465101675,5869.316646941143 7881.683212327753,5894.128315305972 7867.234475662902,5923.025788635674 7835.992295154839,5939.819232478886 7813.146836568381,5962.6646910653435 7790.301377981924,5985.510149651801 7767.4559193954665,6008.355608238257 7744.610460809009,6031.201066824715" />
    <path d="M10211.919988146394,5654.2510001481705 C 10234.76544673285,5642.828270854942 10257.610905319309,5631.405541561713 10280.456363905765,5619.982812268485 10303.301822492222,5608.560082975257 10323.798266863334,5581.515545588499 10348.992739665136,5585.714624388799 10466.62691761859,5605.320320714375 10577.447325529709,5654.2510001481705 10691.674618461995,5688.519188027856 10805.901911394281,5722.787375907542 10917.88500831526,5765.700024099324 11034.356497258854,5791.323751666914 11204.003913306811,5828.646183197465 11377.038376055712,5848.437398133057 11548.379315454142,5876.994221366129 11719.720254852571,5905.5510445992 11892.478586984136,5926.620302378767 12062.40213364943,5962.6646910653435 12082.546535386591,5966.937745979287 12096.670321529116,5985.510149651801 12113.80441546896,5996.932878945029 12130.938509408803,6008.355608238257 12157.558790929537,6012.081300927339 12165.206697288488,6031.201066824715 12171.914354891514,6047.970210832282 12153.78396799526,6065.469254704401 12148.072603348646,6082.603348644244 12142.361238702031,6099.737442584087 12145.387246073655,6123.169077965134 12130.938509408803,6134.005630463773 12117.231234256928,6144.286086827678 12096.670321529116,6134.005630463773 12079.536227589273,6134.005630463773 12062.40213364943,6134.005630463773 12040.249579784095,6146.121264478123 12028.133945769745,6134.005630463773 12016.018311755395,6121.889996449422 12028.133945769745,6099.737442584087 12028.133945769745,6082.603348644244 12028.133945769745,6065.469254704401 12028.133945769745,6048.335160764558 12028.133945769745,6031.201066824715" />
    <path d="M8258.633279004298,5619.982812268485 C 8144.405986072012,5711.364646614314 8030.1786931397255,5802.746480960143 7915.951400207439,5894.128315305972" />
    <path d="M2912.7959697733,5688.519188027856 C 2895.661875833457,5682.807823381242 2878.5277818936142,5677.096458734628 2861.3936879537714,5671.385094088014 2844.2595940139286,5665.6737294414 2811.051979923748,5636.221245726577 2809.9914061342424,5654.2510001481705 2803.917363837226,5757.509719197447 2832.8368647206994,5859.8601274262855 2844.259594013928,5962.6646910653435 2855.682323307157,6065.4692547044015 2863.8995509345928,6168.680765269368 2878.5277818936142,6271.0783819825165 2881.758617630774,6293.694232142637 2878.5277818936142,6225.3874648096025 2878.5277818936142,6202.542006223145 2878.5277818936142,6179.696547636688 2899.3255215529853,6124.552112436786 2878.5277818936142,6134.005630463773 2804.6299271642347,6167.595564431673 2752.8777596680993,6236.810194102831 2690.0527485553416,6288.21247592236 2627.2277374425844,6339.614757741889 2570.651384566884,6399.78125388106 2501.5777152170695,6442.419321380946 2107.3176512810132,6685.789731218018 1701.9866646910655,6910.75122240332 1302.1911394280635,7144.917172914506 78.16335602505865,7861.847731764838 380.7996275946726,7476.754939173914 51.402281819528824,7915.951400207439 34.268187879685954,7938.796858793897 17.134093939842945,7961.642317380353 0,7984.487775966811" />
    <path d="M9937.774485108906,6202.542006223145 C 9909.217661875835,6122.582901170545 9880.660838642763,6042.623796117944 9852.104015409692,5962.6646910653435 9823.54719217662,5882.705586012743 9821.277620193516,5787.603100296587 9766.433545710477,5722.787375907543 9743.992947126908,5696.266668490598 9697.897169951106,5734.210105200771 9663.62898207142,5739.921469847385 9629.360794191733,5745.632834493999 9591.897601554585,5741.518972226117 9560.824418432361,5757.0555637872285 9542.405820882152,5766.264862562333 9537.978959845903,5791.323751666914 9526.556230552675,5808.4578456067575 9515.133501259446,5825.5919395466 9503.710771966218,5842.726033486443 9492.28804267299,5859.8601274262855" />
    <path d="M2947.064157652986,6031.201066824715 C 2958.486886946215,5985.510149651801 2969.909616239443,5939.819232478886 2981.3323455326718,5894.128315305972 2992.7550748259005,5848.437398133057 2980.3997074830495,5788.345186835502 3015.6005334123574,5757.0555637872285 3045.481623527317,5730.494594796153 3095.559638464958,5757.0555637872285 3135.5391909912582,5757.0555637872285 3175.5187435175585,5757.0555637872285 3234.9085384914856,5722.773380322773 3255.477848570159,5757.0555637872285 3274.293255414734,5788.414575194854 3209.7869313972446,5814.169210253372 3186.941472810787,5842.726033486443 3164.09601422433,5871.282856719515 3132.8109532484946,5894.782838725806 3118.4050970514154,5928.396503185658 3113.3743538491453,5940.134903990955 3129.827826344644,5951.241961772115 3135.5391909912582,5962.6646910653435 3141.2505556378724,5974.087420358572 3140.0306403493564,5998.738971028136 3152.673284931101,5996.932878945029 3190.6012186763355,5991.51460269571 3221.209660690473,5962.6646910653435 3255.477848570159,5945.5305971255 3289.7460364498447,5928.396503185658 3324.014224329531,5911.2624092458145 3358.2824122092165,5894.128315305972" />
    <path d="M3392.5506000889022,6031.201066824715 C 3392.5506000889022,6042.623796117944 3392.5506000889022,6054.046525411172 3392.5506000889022,6065.4692547044015 3392.5506000889022,6076.89198399763 3381.3496924803135,6097.49726106237 3392.5506000889022,6099.737442584087 3421.107423321974,6105.448807230701 3449.6642465550453,6088.314713290858 3478.221069788117,6082.603348644244 3506.7778930211884,6076.89198399763 3544.301720364786,6087.018055739202 3563.891539487332,6065.4692547044015 3606.84505938284,6018.220382819343 3621.005185953475,5951.241961772115 3649.5620091865467,5894.128315305972 3678.1188324196182,5837.014668839829 3706.67565565269,5779.901022373686 3735.2324788857613,5722.787375907543" />
    <path d="M4523.400800118537,5791.323751666914 C 4489.132612238851,5797.035116313528 4454.864424359164,5802.746480960143 4420.596236479479,5808.4578456067575 4386.328048599793,5814.169210253372 4344.480352186843,5803.351373424581 4317.791672840422,5825.5919395466 4282.690937983867,5854.842551927061 4352.892407696976,5933.414078684882 4317.791672840422,5962.6646910653435 4258.925950940833,6011.719459315001 4180.718921321678,6031.201066824716 4112.182545562306,6065.4692547044015 4043.646169802934,6099.737442584087 3979.267222370292,6144.042550314758 3906.5734182841907,6168.2738183434585 3895.7368657855523,6171.886002509671 3906.5734182841907,6145.428359757001 3906.5734182841907,6134.005630463773 3906.5734182841907,6122.582901170545 3915.493071307984,6106.873165003122 3906.5734182841907,6099.737442584087 3893.3538226022188,6089.16176603851 3744.2781522287314,6040.246740167685 3735.2324788857613,6031.201066824715 3726.2020184702296,6022.170606409183 3746.65520817899,6008.355608238257 3752.366572825604,5996.932878945029 3758.0779374722183,5985.510149651801 3757.294413432992,5966.420461321483 3769.500666765447,5962.6646910653435 3835.909864654864,5942.231091714753 3906.5734182841907,5939.819232478886 3975.1097940435625,5928.396503185658 4043.6461698029343,5916.97377389243 4112.182545562306,5905.5510445992 4180.718921321678,5894.128315305972" />
    <path d="M9869.238109349535,6373.882945621574 C 9840.681286116464,6328.19202844866 9812.12446288339,6282.501111275746 9783.567639650319,6236.810194102831 9755.010816417247,6191.119276929916 9732.701123348092,6140.8693875078 9697.897169951104,6099.737442584087 9669.083505610031,6065.684930181002 9629.360794191733,6042.623796117944 9595.092606312048,6014.0669728848725 9560.824418432361,5985.510149651801 9531.281737029161,5950.059666716864 9492.28804267299,5928.396503185658 9477.310149785726,5920.0754515816225 9458.019854793303,5928.396503185658 9440.88576085346,5928.396503185658 9423.751666913617,5928.396503185658 9406.617572973775,5928.396503185658 9389.483479033932,5928.396503185658" />
    <path d="M4454.864424359164,5996.932878945029 C 4432.018965772707,5991.221514298415 4409.17350718625,5985.510149651801 4386.328048599793,5979.798785005187 4363.4825900133355,5974.087420358573 4340.637131426879,5956.953326418729 4317.791672840422,5962.6646910653435 4268.232914938048,5975.054380540937 4226.409838494593,6008.355608238257 4180.718921321678,6031.201066824715 4135.028004148763,6054.046525411172 4081.182867775313,6065.088182917276 4043.6461698029343,6099.737442584087 4004.054294243422,6136.283789254406 3986.532523336791,6191.119276929916 3957.9757001037196,6236.810194102831 3929.418876870648,6282.501111275746 3900.862053637576,6328.19202844866 3872.3052304045045,6373.882945621574" />
    <path d="M12919.106830641578,5962.6646910653435 C 12947.66365387465,6031.201066824715 12976.220477107721,6099.737442584087 13004.777300340793,6168.2738183434585 13283.917683180349,6838.210737158395 13106.465093517978,6301.383481458121 12764.89998518299,7847.415024448067 12656.384056897317,8338.592384056898 12547.868128611646,8829.769743665729 12439.352200325975,9320.94710327456" />
    <path d="M8704.119721440215,5996.932878945029 C 8675.562898207143,6002.644243591643 8647.006074974071,6008.355608238258 8618.449251741,6014.0669728848725 8589.892428507928,6019.778337531487 8553.371400128026,6010.608448738475 8532.778782041785,6031.201066824715 8516.624603355986,6047.3552455105155 8532.778782041785,6076.89198399763 8532.778782041785,6099.737442584087 8532.778782041785,6122.582901170545 8516.624603355986,6152.119639657658 8532.778782041785,6168.2738183434585 8553.371400128026,6188.866436429698 8589.892428507928,6179.696547636688 8618.449251741,6185.407912283302 8647.006074974071,6191.119276929916 8712.487969946369,6174.647844535962 8704.119721440215,6202.542006223145 8684.357675898502,6268.415491362188 8612.737887094385,6305.346569862202 8567.04696992147,6356.748851681731 8521.356052748555,6408.15113350126 8470.425102016823,6455.335732170936 8429.974218402727,6510.955697140318 8423.255692322247,6520.193670500979 8429.974218402727,6533.8011557267755 8429.974218402727,6545.223885020004 8429.974218402727,6556.646614313232 8418.892543247712,6576.721654110936 8429.974218402727,6579.492072899689 8452.819676989184,6585.203437546304 8475.665135575642,6568.06934360646 8498.510594162099,6562.357978959846 8521.356052748555,6556.646614313232 8544.201511335013,6550.935249666618 8567.04696992147,6545.223885020004" />
    <path d="M9800.701733590162,6648.028448659061 C 9743.588087124019,6630.894354719218 9686.474440657876,6613.760260779375 9629.360794191733,6596.626166839533 9572.24714772559,6579.492072899689 9513.061452480819,6568.157884056469 9458.019854793303,6545.223885020004 9443.10830523718,6539.010739371619 9435.174396206847,6522.378426433546 9423.751666913618,6510.955697140318 9412.32893762039,6499.532967847089 9392.987812411928,6492.457009461609 9389.483479033932,6476.6875092606315 9380.810696401017,6437.659987412512 9389.483479033932,6396.728404208031 9389.483479033932,6356.748851681731 9389.483479033932,6316.769299155431 9404.860230005586,6273.7143964348 9389.483479033932,6236.810194102831 9373.95061491297,6199.531320212523 9332.369832567789,6179.696547636688 9303.813009334717,6151.139724403616 9275.256186101646,6122.582901170545 9246.699362868574,6094.026077937473 9218.142539635503,6065.4692547044015 9201.00844569566,6048.335160764559 9252.410727515187,6099.737442584088 9269.54482145503,6116.87153652393 9286.678915394874,6134.005630463774 9303.813009334717,6151.139724403616 9320.94710327456,6168.2738183434585" />
    <path d="M2912.7959697733,6716.564824418433 C 2947.0641576529856,6716.564824418433 2981.3323455326718,6716.564824418433 3015.6005334123574,6716.564824418433 3049.8687212920436,6716.564824418433 3090.3315036820327,6736.216339777001 3118.4050970514154,6716.564824418433 3156.1278546622298,6690.158894090863 3164.09601422433,6636.605719365833 3186.941472810787,6596.626166839533 3209.7869313972446,6556.646614313232 3225.5111875780744,6511.648613751397 3255.477848570159,6476.6875092606315 3270.345475940871,6459.341943994801 3307.8600456437302,6492.841687946432 3324.0142243295304,6476.6875092606315 3381.4127286548714,6419.289004935291 3426.8187879685884,6351.037487035117 3478.221069788117,6288.21247592236 3529.623351607646,6225.3874648096025 3559.8239120646617,6136.039444175108 3632.4279152467034,6099.737442584087 3663.501098368927,6084.200851022975 3643.850644539932,6168.273818343459 3649.5620091865467,6202.542006223145 3655.273373833161,6236.810194102831 3676.6788200628066,6272.070846740812 3666.6961031263895,6305.346569862202 3657.412364949538,6336.29236378504 3621.005185953475,6351.037487035117 3598.1597273670177,6373.882945621574 3575.3142687805603,6396.728404208032 3552.4688101941033,6419.573862794488 3529.623351607646,6442.419321380946" />
    <path d="M8567.04696992147,6510.955697140318 C 8612.737887094385,6465.264779967403 8658.4288042673,6419.573862794489 8704.119721440215,6373.882945621574 8749.81063861313,6328.1920284486605 8789.975714756367,6276.207700412516 8841.192472958957,6236.810194102831 8865.570923564508,6218.057539790868 8898.3061194251,6213.964735516373 8926.862942658172,6202.542006223145 8955.419765891244,6191.119276929916 8983.976589124315,6179.696547636688 9012.533412357387,6168.2738183434585" />
    <path d="M4386.328048599793,6202.542006223145 C 4334.925766780264,6236.810194102831 4283.523484960736,6271.0783819825165 4232.121203141207,6305.346569862202 4180.718921321678,6339.614757741888 4136.31747196166,6388.012128577453 4077.91435768262,6408.15113350126 3967.7883892849613,6446.125605362522 3849.4597718180476,6453.842050674174 3735.2324788857613,6476.6875092606315 3621.005185953475,6499.532967847089 3506.7778930211884,6522.378426433546 3392.5506000889022,6545.223885020004" />
    <path d="M3186.941472810787,6442.419321380946 C 3181.2301081641726,6425.2852274411025 3175.5187435175585,6408.15113350126 3169.807378870944,6391.017039561417 3164.09601422433,6373.8829456215735 3170.383474883226,6343.156795732313 3152.673284931101,6339.614757741888 3101.9590187848694,6329.471904512641 3049.8687212920436,6351.037487035117 2998.4664394725146,6356.748851681731 2947.0641576529856,6362.460216328345 2895.978200553363,6373.882945621574 2844.259594013928,6373.882945621574 2836.182504671028,6373.882945621574 2855.682323307157,6362.460216328345 2861.3936879537714,6356.748851681731 2867.1050526003855,6351.037487035117 2878.5277818936142,6331.537668398988 2878.5277818936142,6339.614757741888 2878.5277818936142,6352.3857573360065 2867.105052600386,6362.460216328345 2861.3936879537714,6373.882945621574 2855.6823233071573,6385.305674914803 2857.0305936080467,6408.15113350126 2844.259594013928,6408.15113350126 2828.105415328128,6408.15113350126 2821.414135427471,6385.305674914803 2809.9914061342424,6373.882945621574 2798.5686768410137,6362.460216328345 2773.7195389887565,6323.585323615488 2775.7232182545563,6339.614757741888 2783.119210711805,6398.782697399875 2809.9914061342424,6453.842050674175 2827.1255000740853,6510.955697140318 2844.259594013928,6568.069343606461 2861.3936879537714,6625.182990072604 2878.5277818936142,6682.296636538747" />
    <path d="M3700.964291006075,6579.492072899689 C 3695.252926359461,6596.626166839533 3689.5415617128465,6613.760260779375 3683.8301970662324,6630.894354719218 3633.5406597955234,6781.762966531346 3682.437559900687,6673.442067103205 3392.5506000889022,6836.503481997333 3301.168765743073,6887.905763816862 3209.786931397244,6939.308045636391 3118.4050970514154,6990.71032745592" />
    <path d="M9115.337975996445,6613.760260779375 C 9218.142539635503,6636.605719365833 9320.94710327456,6659.45117795229 9423.751666913618,6682.296636538747" />
    <path d="M5928.396503185658,6819.369388057491 C 5859.860127426286,6802.235294117648 5791.323751666914,6785.101200177805 5722.787375907543,6767.967106237962 5654.2510001481705,6750.833012298119 5587.823927742655,6716.564824418433 5517.178248629427,6716.564824418433 5500.044154689584,6716.564824418433 5517.178248629427,6750.833012298119 5517.178248629427,6767.967106237962 5517.178248629427,6785.101200177805 5525.993667234573,6804.6770237155815 5517.178248629427,6819.369388057491 5506.583434030917,6837.027412388342 5482.910060749741,6842.2148466439485 5465.775966809898,6853.637575937177 5448.6418728700555,6865.060305230405 5434.864105829969,6889.954805900822 5414.37368499037,6887.905763816862 5327.812499731411,6879.249645290966 5260.817514368334,6795.891343244775 5174.496369832568,6785.1012001778045 5071.857911665488,6772.27139290692 4968.112517394523,6836.374361137346 4866.082678915395,6819.369388057491 4842.181103365137,6815.385792132448 4831.81449103571,6785.101200177805 4814.680397095866,6767.967106237962 4797.546303156023,6750.833012298119 4780.412209216181,6733.698918358276 4763.278115276337,6716.564824418433" />
    <path d="M3838.037042524819,6922.173951696548 C 3798.0574899985186,6922.173951696548 3758.0779374722183,6922.173951696548 3718.098384945918,6922.173951696548 3678.118832419618,6922.173951696548 3634.5557717709166,6905.630295149322 3598.1597273670177,6922.173951696548 3504.4255814225016,6964.780381671328 3426.8187879685884,7036.401244628834 3341.1483182693737,7093.514891094977 3255.477848570159,7150.6285375611205 3169.807378870944,7207.742184027264 3084.1369091717293,7264.855830493407" />
    <path d="M4214.987109201364,7093.514891094977 C 4243.543932434435,7099.226255741592 4272.100755667507,7104.937620388207 4300.657578900578,7110.648985034821 4329.21440213365,7116.360349681435 4357.771225366721,7133.494443621278 4386.328048599793,7127.783078974664 4410.58793356387,7122.931101981849 4539.238206894771,7025.948556446314 4557.668987998222,7024.978515335606 4638.328242267539,7020.733291426694 4717.587198103423,7047.8239739220635 4797.546303156024,7059.246703215292 4877.505408208624,7070.66943250852 4957.464513261224,7082.092161801749 5037.423618313825,7093.514891094977" />
    <path d="M5311.569121351312,7059.246703215292 C 5305.857756704698,7127.783078974663 5300.146392058083,7196.319454734035 5294.435027411469,7264.855830493407 5288.723662764854,7333.392206252779 5272.7261591949,7401.843343620634 5277.300933471626,7470.464957771523 5278.6707340508165,7491.011966459383 5300.146392058084,7504.733145651208 5311.569121351312,7521.867239591052 5322.99185064454,7539.001333530894 5334.414579937769,7556.135427470737 5345.837309230998,7573.26952141058" />
    <path d="M2912.7959697733,7401.92858201215 C 2969.909616239443,7396.217217365536 3027.023262705586,7390.505852718922 3084.1369091717293,7384.794488072308 3141.2505556378724,7379.083123425694 3201.733954221519,7387.814354513204 3255.477848570159,7367.660394132465 3339.0118641626045,7336.335138285298 3379.352578445915,7232.078253597568 3461.086975848274,7196.319454734035 3514.448302896759,7172.973874150323 3575.3142687805603,7173.473996147578 3632.4279152467034,7162.05126685435 3689.5415617128465,7150.628537561121 3745.524135080472,7127.783078974664 3803.768854645133,7127.783078974664 3839.890696307261,7127.783078974664 3872.305230404505,7150.628537561121 3906.5734182841907,7162.05126685435 3940.8416061638763,7173.473996147578 3975.1097940435625,7184.896725440807 4009.377981923248,7196.319454734035" />
    <path d="M4866.082678915395,7264.855830493407 C 4843.237220328938,7253.4331012001785 4820.391761742481,7242.010371906949 4797.546303156024,7230.587642613721 4774.7008445695665,7219.164913320493 4754.295216560141,7199.931638900248 4729.009927396652,7196.319454734035 4711.130527964885,7193.765254815212 4694.741739516966,7207.742184027265 4677.607645577123,7213.453548673879 4660.47355163728,7219.164913320493 4641.232958251094,7220.569246284722 4626.205363757595,7230.587642613721 4554.9232242283015,7278.109068966583 4489.132612238851,7333.392206252779 4420.596236479479,7384.794488072308 4182.678751829766,7563.232601559592 4227.102743215713,7454.191895430443 4197.85301526152,7658.939991109794 4192.141650614906,7698.919543636095 4157.245357220802,7746.01565894747 4180.718921321678,7778.878648688696 4200.636900946893,7806.763820163997 4249.255297081049,7778.878648688696 4283.523484960735,7778.878648688696 4317.791672840421,7778.878648688696 4352.059860720107,7778.878648688696 4386.328048599793,7778.878648688696" />
    <path d="M4386.328048599793,7744.610460809009 C 4409.17350718625,7704.630908282709 4432.018965772707,7664.6513557564085 4454.864424359164,7624.671803230109 4477.709882945622,7584.692250703809 4489.457436516465,7535.847895619773 4523.400800118537,7504.733145651208 4530.9721544447875,7497.792737518811 4786.343960051744,7376.373327658016 4797.546303156024,7367.660394132465 4811.802731061883,7356.572061316797 4808.969032449252,7333.392206252779 4814.680397095866,7316.258112312936 4820.39176174248,7299.124018373092 4826.103126389095,7281.98992443325 4831.81449103571,7264.855830493407" />
    <path d="M9286.678915394874,7573.26952141058 C 9263.833456808417,7573.26952141058 9240.987998221959,7573.26952141058 9218.142539635503,7573.26952141058 9195.297081049046,7573.26952141058 9170.308333272638,7582.930533795617 9149.606163876131,7573.26952141058 9082.125347614818,7541.778473821967 9023.956141650617,7493.310416357979 8961.131130537859,7453.330863831679 8898.3061194251,7413.35131130538 8846.374749579367,7343.923442307033 8772.656097199586,7333.392206252779 8711.761057016733,7324.692914798085 8658.4288042673,7379.083123425693 8601.315157801157,7401.92858201215 8544.201511335013,7424.774040598608 8454.205486431429,7413.925332371221 8429.974218402727,7470.464957771523 8405.742950374026,7527.0045831718235 8475.665135575642,7584.692250703809 8498.510594162099,7641.805897169952 8521.356052748555,7698.919543636095 8517.525344950718,7776.65721816888 8567.04696992147,7813.146836568381 8638.426619832102,7865.742368081478 8738.3879093199,7858.837753741295 8824.058379019114,7881.683212327753 8909.728848718329,7904.52867091421 8995.399318417543,7927.374129500668 9081.069788116758,7950.219588087125" />
    <path d="M719.6319454734036,9320.94710327456 C 765.3228626463181,9298.101644688104 811.0137798192327,9275.256186101646 856.7046969921471,9252.41072751519 902.3956141650617,9229.56526892873 952.8370406534518,9214.426894933009 993.7774485108906,9183.874351755816 1336.2177138127488,8928.321914963384 1667.7184768113796,8658.4288042673 2004.688990961624,8395.70603052304 2341.6595051118684,8132.983256778783 2669.059801733855,7857.501515746891 3015.6005334123574,7607.537709290266 3028.7020517202545,7598.087433789488 3038.445991998815,7630.383167876724 3049.8687212920436,7641.805897169952 3061.2914505852723,7653.22862646318 3082.1332299059295,7660.044650923239 3084.1369091717293,7676.074085049638 3092.7550595593493,7745.019288150597 3044.918351595171,7812.378036571534 3049.8687212920436,7881.683212327753 3053.22425211285,7928.660643819046 3072.7141798785005,7973.0650466735815 3084.1369091717293,8018.755963846496 3095.559638464958,8064.446881019411 3100.290820355716,8112.354451295561 3118.4050970514154,8155.82871536524 3123.337921826029,8167.667494824313 3218.7205639365548,8284.189628245269 3221.209660690473,8292.901466883983 3226.171377232048,8310.267474779495 3209.7869313972446,8327.16965476367 3204.07556675063,8344.303748703513 3198.364202104016,8361.437842643356 3200.305471896123,8383.556940445464 3186.941472810787,8395.70603052304 3010.0009136864996,8556.561084272393 2821.414135427471,8704.119721440215 2638.650466735813,8858.3265668988 2455.886798044155,9012.533412357387 2279.69694898082,9174.886755142004 2090.359460660839,9320.94710327456 2076.792989114114,9331.412667039178 2056.091272781153,9320.94710327456 2038.95717884131,9320.94710327456 2021.8230849014672,9320.94710327456 2004.688990961624,9320.94710327456 1987.5548970217812,9320.94710327456" />
    <path d="M1610.6048303452365,7813.146836568381 C 1587.7593717587793,7841.703659801453 1564.9139131723218,7870.260483034524 1542.0684545858646,7898.817306267596 1519.2229959994074,7927.374129500668 1503.7612905872138,7963.906184980788 1473.532078826493,7984.487775966811 1233.8274883664212,8147.690901386434 982.3547192176621,8292.901466883985 736.7660394132465,8447.10831234257 1.748926753484966,8908.630685408001 0,8626.06449155932 0,8978.265224477702" />
    <path d="M9526.556230552675,8224.365091124611 C 9577.958512372204,8195.80826789154 9629.360794191733,8167.251444658468 9680.763076011262,8138.694621425397 9732.16535783079,8110.137798192325 9779.185353205165,8071.61900781441 9834.969921469848,8053.024151726182 9867.479578965764,8042.187599227544 9903.50629722922,8053.024151726182 9937.774485108906,8053.024151726182 9972.042672988593,8053.024151726182 10006.310860868278,8053.024151726182 10040.579048747964,8053.024151726182" />
    <path d="M0,9218.142539635503 C 0,9195.297081049046 0,9172.451622462588 0,9149.606163876131 0,8881.253633066792 -19.5898191225466,9092.823679590287 514.0228181952882,8772.656097199586 685.3637575937177,8669.851533560528 861.2074983166152,8574.203906376615 1028.0456363905764,8464.242406282414 1112.9508300014372,8408.282165038892 1187.9638464957773,8338.5923840569 1267.9229515483776,8275.767372944141 1347.8820566009779,8212.942361831383 1427.8411616535784,8150.117350718626 1507.8002667061787,8087.292339605869" />
    <path d="M9834.969921469848,8292.901466883983 C 9829.258556823233,8281.478737590754 9823.54719217662,8270.056008297526 9817.835827530005,8258.633279004298 9812.12446288339,8247.21054971107 9796.663188918712,8212.249457110262 9800.701733590162,8224.365091124611 9816.132991112612,8270.65886369196 9834.969921469848,8315.746925470441 9852.104015409692,8361.437842643356 9869.238109349535,8407.12875981627 9895.025934246063,8450.455203924213 9903.50629722922,8498.510594162099 9912.439259938914,8549.130716183696 9903.50629722922,8601.315157801157 9903.50629722922,8652.717439620685 9903.50629722922,8823.078463765085 9939.853199272273,8770.57738303622 9869.238109349535,8841.192472958957 9857.815380056307,8852.615202252186 9851.12410015565,8875.460660838644 9834.969921469848,8875.460660838644 9783.885923093374,8875.460660838644 9748.981168327578,8806.924285079273 9697.897169951104,8806.924285079273 9681.742991265304,8806.924285079273 9675.051711364647,8829.769743665729 9663.62898207142,8841.192472958957 9652.20625277819,8852.615202252186 9642.80188332204,8884.421386925515 9629.360794191733,8875.460660838644 9614.448401439946,8865.519065670785 9509.680505497408,8683.765503820063 9492.28804267299,8669.851533560528 9482.315567424534,8661.873553361762 9480.865313379762,8692.696992146986 9475.153948733147,8704.119721440215 9469.442584086531,8715.542450733443 9470.662499375048,8740.194001403006 9458.019854793303,8738.3879093199 9420.09192104807,8732.96963307058 9389.483479033932,8704.119721440215 9355.215291154245,8686.985627500371 9320.94710327456,8669.851533560528 9252.41072751519,8673.896344463199 9252.41072751519,8635.583345680843 9252.41072751519,8597.270346898487 9320.94710327456,8601.315157801157 9355.215291154245,8584.181063861313 9389.483479033932,8567.04696992147 9420.619201145124,8541.090038408047 9458.019854793303,8532.778782041785 9475.650692003595,8528.860818217276 9492.28804267299,8544.201511335013 9509.422136612833,8549.912875981629 9580.360291273913,8573.558927535321 9545.796823938856,8557.028573592468 9612.22670025189,8601.315157801157 9629.360794191733,8612.737887094385 9652.714916313822,8618.120840468686 9663.62898207142,8635.583345680843 9682.773519863309,8666.214606147867 9686.474440657876,8704.119721440215 9697.897169951104,8738.3879093199 9709.319899244332,8772.656097199586 9720.742628537562,8806.92428507927 9732.16535783079,8841.192472958957" />
    <path d="M5105.959994073197,8292.901466883983 C 5083.114535486739,8315.746925470441 5060.269076900282,8338.592384056898 5037.423618313825,8361.437842643356 5014.578159727367,8384.283301229812 4982.008909258062,8400.450468319608 4968.887242554453,8429.974218402727 4945.691193787975,8482.165328127303 4996.624081234571,8551.388848176945 4968.887242554453,8601.315157801157 4933.366757749967,8665.25203044923 4836.311037668039,8676.364334100675 4797.546303156024,8738.3879093199 4785.438234321315,8757.760819455434 4797.546303156024,8784.078826492814 4797.546303156024,8806.924285079273 4797.546303156024,8829.769743665729 4797.546303156024,8852.615202252187 4797.546303156024,8875.460660838644" />
    <path d="M3255.477848570159,8464.242406282414 C 3335.069557633991,8543.834115346239 3302.4333058232223,8487.233021385764 3135.5391909912582,8635.583345680843 3084.1369091717297,8681.274262853758 3035.7135284322067,8730.554536245107 2981.3323455326718,8772.656097199586 2858.480832703818,8867.766945841278 2730.032301081642,8955.419765891244 2604.382278856127,9046.801600237073 2478.732256630612,9138.183434582903 2353.082234405097,9229.56526892873 2227.432212179582,9320.94710327456" />
    <path d="M8635.583345680843,8498.510594162099 C 8569.387235026074,8432.314483507329 8553.89742083116,8437.89921907686 8755.522003259743,8549.912875981629 8806.92428507927,8578.4696992147 8854.670728656922,8614.936550657816 8909.728848718329,8635.583345680843 8985.356992934223,8663.943899761804 9073.978019660237,8641.490979479568 9149.606163876131,8669.851533560528 9172.726961157641,8678.521832541093 9162.377428409849,8738.3879093199 9183.874351755816,8738.3879093199 9200.028530441616,8738.3879093199 9206.719810342274,8715.542450733443 9218.142539635503,8704.119721440215 9229.56526892873,8692.696992146986 9240.98799822196,8681.274262853756 9252.41072751519,8669.851533560528" />
    <path d="M4180.718921321678,9115.337975996445 C 4352.059860720107,9138.183434582901 4523.400800118537,9161.02889316936 4694.741739516966,9183.874351755816 4866.082678915395,9206.719810342274 5036.051105319265,9245.361198846087 5208.764557712254,9252.41072751519 5317.789247800269,9256.860714865721 5425.796414283598,9229.56526892873 5534.31234256927,9218.142539635503 5642.828270854942,9206.719810342274 5750.77874167116,9186.601386399694 5859.8601274262855,9183.874351755816 5979.897187154262,9180.873425262616 6099.737442584087,9195.297081049044 6219.6761001629875,9201.00844569566 6339.614757741888,9206.719810342274 6459.882214026329,9228.696350712564 6579.492072899689,9218.142539635503 6590.2643651997105,9217.19204325609 7011.718012962797,9082.799418861037 7024.978515335606,9081.069788116758 7081.894895826088,9073.645912400609 7139.205808267892,9092.492517409986 7196.319454734035,9098.203882056601 7253.4331012001785,9103.915246703216 7310.546747666322,9109.62661134983 7367.660394132465,9115.337975996445" />
    </g></svg>
